<?xml version="1.0" encoding="utf-8"?>
<!-- Generator: Adobe Illustrator 19.0.0, SVG Export Plug-In . SVG Version: 6.00 Build 0)  -->
<svg version="1.1" id="Layer_1" xmlns="http://www.w3.org/2000/svg" xmlns:xlink="http://www.w3.org/1999/xlink" x="0px" y="0px"
	 viewBox="0 0 720 720" style="enable-background:new 0 0 720 720;" xml:space="preserve">
<style type="text/css">
	.st0{fill:#EDDD14;}
	.st1{fill:#FFFFFF;}
</style>
<g id="XMLID_104_">
	<path id="XMLID_24_" class="st0" d="M352.1,35h-3.2H169c0,0,0,225.9,0,296.6c0,59.6,51,154.2,180,155.6v0c1,0,1,0,1.5,0
		c0.5,0,0.5,0,1.5,0v0c129-1.4,180-96,180-155.6c0-70.7,0-296.6,0-296.6H352.1z"/>
</g>
<path id="XMLID_103_" class="st1" d="M364,22.7H323H55.8c-14,0-25,11.8-24.2,25.7l0,0c0.1,2.2,3.4,53.8,22.7,115.6
	c11.4,36.7,26.2,69.4,43.9,97.4c20,31.6,43.9,57.2,71,76.1c-0.1-2-0.2-3.9-0.2-5.8c0-14.1,0-34.4,0-57.8
	c-50.8-52.6-73-131.3-82.4-181.2c-2.1-11.1,6.5-21.4,17.8-21.4l159.5,0c25.4,0,45.9,20.6,45.9,45.9v489.3
	c0,17.4-14.1,31.5-31.5,31.5h-32.6c-16.7,0-30.3,13.6-30.3,30.3v29H323H364h121.8v-29c0-16.7-13.6-30.3-30.3-30.3h-46.7
	c-17.4,0-31.5-14.1-31.5-31.5V117.1c0-25.4,20.6-45.9,45.9-45.9l173.5,0c11.3,0,19.9,10.3,17.8,21.4
	c-9.3,49.9-31.5,128.6-82.5,181.2c0,23.4,0,43.7,0,57.8c0,1.9-0.1,3.9-0.2,5.8c27.1-18.9,50.9-44.4,71-76.1
	c17.7-27.9,32.4-60.7,43.9-97.4c19.3-61.8,22.5-113.4,22.7-115.6v0c0.8-13.9-10.2-25.7-24.2-25.7H364z"/>
</svg>
